# Blender 4.1.1
# www.blender.org
mtllib untitled.mtl
o Cube.003
v 0.142283 -0.082168 1.000000
v 0.142283 0.082168 1.000000
v 0.254751 -0.082168 1.112468
v 0.142283 0.110759 1.000000
v 0.254751 0.082168 1.112468
v 0.254751 0.110759 1.112468
v 0.048524 -0.082168 0.906241
v 0.048524 0.082168 0.906241
v 0.217366 0.082168 0.000000
v 0.348850 0.082168 0.000000
v 0.348850 -0.082168 0.000000
v 0.217366 -0.082168 0.000000
v 0.926572 -0.082168 1.000000
v -0.066800 -0.082168 0.396553
v -0.066800 0.082168 0.396553
v 0.926572 0.082168 1.000000
v 0.926572 0.110759 1.000000
v 0.993396 -0.082168 1.115669
v 0.993396 0.082168 1.115669
v 0.993396 0.110759 1.115669
v 0.290161 -0.082168 -0.101586
v 0.290161 0.082168 -0.101586
vn -0.0000 1.0000 -0.0000
vn -0.0000 -1.0000 -0.0000
vn -0.0000 -0.0000 -1.0000
vn -0.0043 -0.0000 1.0000
vn -0.7071 -0.0000 0.7071
vn -0.9753 -0.0000 0.2207
vn -0.8128 -0.0000 -0.5825
vn 0.8659 -0.0000 -0.5002
vt 0.525198 0.515113
vt 0.498116 0.534519
vt 0.498116 0.499467
vt 0.955912 0.944206
vt 0.955913 0.944459
vt 0.955718 0.944320
vt 0.957833 0.944595
vt 0.956677 0.945001
vt 0.256524 0.579530
vt 0.231530 0.345454
vt 0.958048 0.944378
vt 0.957826 0.943089
vt 0.958048 0.942960
vt 0.967247 0.943868
vt 0.966579 0.942362
vt 0.967247 0.942362
vt 0.958939 0.949487
vt 0.962778 0.950904
vt 0.958939 0.950904
vt 0.958269 0.943089
vt 0.958263 0.944595
vt 0.958272 0.950904
vt 0.958272 0.949487
vt 0.908933 0.916470
vt 0.907732 0.916470
vt 0.908933 0.917633
vt 0.909068 0.920750
vt 0.907597 0.916072
vt 0.907597 0.920750
vt 0.907572 0.915701
vt 0.909093 0.915701
vt 0.907572 0.914545
vt 0.909092 0.917226
vt 0.909356 0.918461
vt 0.907573 0.917226
vt 0.957654 0.944775
vt 0.392401 0.610274
vt 0.231530 0.554535
vt 0.966579 0.943868
vt 0.962778 0.949487
vt 0.909142 0.917633
vt 0.909142 0.916470
vt 0.908933 0.915500
vt 0.907732 0.915500
vt 0.907732 0.917633
vt 0.909068 0.916072
vt 0.907572 0.920215
vt 0.909093 0.920215
vt 0.909093 0.914545
vt 0.907573 0.906549
vt 0.907573 0.905464
vt 0.909092 0.905464
vt 0.909092 0.906549
vt 0.909092 0.918461
vt 0.907573 0.918461
vt 0.909356 0.917226
s 0
usemtl Material.001
f 22/1/1 9/2/1 10/3/1
f 11/4/2 12/5/2 21/6/2
f 1/7/2 14/8/2 11/4/2
f 9/2/1 8/9/1 16/10/1
f 3/11/2 13/12/2 18/13/2
f 2/14/3 17/15/3 16/16/3
f 5/17/4 18/18/4 19/19/4
f 6/11/1 17/20/1 4/21/1
f 5/17/4 20/22/4 6/23/4
f 2/24/5 1/25/5 5/26/5
f 8/27/6 14/28/6 7/29/6
f 12/30/7 9/31/7 21/32/7
f 16/33/8 20/34/8 13/35/8
f 11/4/2 13/12/2 1/7/2
f 1/7/2 7/36/2 14/8/2
f 14/8/2 12/5/2 11/4/2
f 16/10/1 10/3/1 9/2/1
f 9/2/1 15/37/1 8/9/1
f 8/9/1 2/38/1 16/10/1
f 3/11/2 1/7/2 13/12/2
f 2/14/3 4/39/3 17/15/3
f 5/17/4 3/40/4 18/18/4
f 6/11/1 20/13/1 17/20/1
f 5/17/4 19/19/4 20/22/4
f 5/26/5 6/41/5 4/42/5
f 2/24/5 8/43/5 7/44/5
f 5/26/5 4/42/5 2/24/5
f 1/25/5 3/45/5 5/26/5
f 2/24/5 7/44/5 1/25/5
f 8/27/6 15/46/6 14/28/6
f 12/30/7 14/47/7 15/48/7
f 9/31/7 22/49/7 21/32/7
f 12/30/7 15/48/7 9/31/7
f 11/50/8 21/51/8 22/52/8
f 11/50/8 22/52/8 10/53/8
f 19/54/8 18/55/8 13/35/8
f 13/35/8 11/50/8 10/53/8
f 16/33/8 17/56/8 20/34/8
f 13/35/8 10/53/8 16/33/8
f 20/34/8 19/54/8 13/35/8
