# Blender 4.1.1
# www.blender.org
mtllib untitled.mtl
o Cube.004
v 1.000000 -0.082168 -1.000000
v 1.000000 0.082168 -1.000000
v 1.000000 -0.082168 0.000000
v 1.000000 0.082168 0.000000
v 1.546806 -0.082168 0.000000
v 1.273403 -0.082168 0.000000
v 1.273403 0.082168 0.000000
v 1.420120 0.082168 -0.184074
v 1.323730 0.082168 -0.536631
v 1.323730 -0.082168 -0.536631
v 1.420120 -0.082168 -0.184074
v 1.546806 0.082168 0.000000
v 1.279854 0.082168 -0.940601
v 1.213655 0.082168 -1.000000
v 1.273403 0.082168 -0.915504
v 1.213655 -0.082168 -1.000000
v 1.279854 -0.082168 -0.940601
v 1.273403 -0.082168 -0.915504
v 1.525051 -0.082168 -0.232813
v 1.525051 0.082168 -0.232813
v 1.437399 0.082168 -0.558201
v 1.437399 -0.082168 -0.558201
v 1.662504 0.082168 0.000000
v 1.662504 -0.082168 0.000000
v 1.382805 0.082168 -0.993395
v 1.255024 0.082168 -1.108049
v 1.255024 -0.082168 -1.108049
v 1.382805 -0.082168 -0.993395
v 1.323730 0.110759 -0.536631
v 1.420120 0.110759 -0.184074
v 1.525051 0.110759 -0.232813
v 1.546806 0.110759 0.000000
v 1.662504 0.110759 0.000000
v 1.279854 0.110759 -0.940601
v 1.213655 0.110759 -1.000000
v 1.000000 0.110759 -1.000000
v 1.437399 0.110759 -0.558201
v 1.382805 0.110759 -0.993395
v 1.255024 0.110759 -1.108049
v 0.933956 0.082168 -1.000000
v 0.933956 -0.082168 -1.000000
v 1.000000 -0.082168 -1.092165
v 0.933956 0.110759 -1.000000
v 1.016509 0.082168 -1.115203
v 1.016509 -0.082168 -1.115203
v 1.000000 0.110759 -1.092165
v 1.016509 0.110759 -1.115203
v 0.290161 0.082168 -0.101586
v 0.348850 0.082168 0.000000
v 0.348850 -0.082168 0.000000
v 0.290161 -0.082168 -0.101586
vn -0.0000 1.0000 -0.0000
vn -0.0000 -1.0000 -0.0000
vn -0.6678 -0.0000 0.7443
vn 0.9922 -0.0000 -0.1245
vn -0.0000 -0.0000 1.0000
vn -0.9646 -0.0000 0.2637
vn 0.8611 -0.0000 -0.5084
vn 0.9656 -0.0000 -0.2601
vn 0.0300 -0.0000 -0.9996
vn 0.6678 -0.0000 -0.7443
vn -0.8238 -0.0000 0.5669
vn -0.9942 -0.0000 0.1080
vn -0.8128 -0.0000 -0.5825
vn -0.8659 -0.0000 0.5002
vt 0.498116 0.499467
vt 0.764703 0.325879
vt 0.764703 0.343486
vt 0.953987 0.942965
vt 0.955912 0.944206
vt 0.955718 0.944320
vt 0.967284 0.951392
vt 0.966616 0.951266
vt 0.967284 0.951266
vt 0.953765 0.952322
vt 0.954601 0.951654
vt 0.954601 0.952322
vt 0.955904 0.942432
vt 0.954099 0.942428
vt 0.954874 0.942340
vt 0.954147 0.942440
vt 0.498116 0.252994
vt 0.547188 0.213881
vt 0.641175 0.239577
vt 0.764703 0.268922
vt 0.498116 0.325879
vt 0.953988 0.943092
vt 0.953811 0.942966
vt 0.967284 0.950856
vt 0.966616 0.950729
vt 0.967284 0.950729
vt 0.955902 0.941907
vt 0.955455 0.941951
vt 0.955901 0.941685
vt 0.958246 0.953106
vt 0.957578 0.952429
vt 0.958246 0.952429
vt 0.742177 0.252994
vt 0.748868 0.251274
vt 0.953986 0.942555
vt 0.955672 0.956160
vt 0.955225 0.952322
vt 0.955672 0.952322
vt 0.955225 0.956160
vt 0.954433 0.947264
vt 0.958272 0.947722
vt 0.954433 0.947722
vt 0.958272 0.947017
vt 0.958272 0.947264
vt 0.954601 0.956160
vt 0.955550 0.942152
vt 0.954832 0.942122
vt 0.953997 0.942230
vt 0.958246 0.953459
vt 0.957578 0.953106
vt 0.953778 0.942477
vt 0.962110 0.942555
vt 0.962099 0.942230
vt 0.962318 0.942477
vt 0.962108 0.943092
vt 0.962108 0.942965
vt 0.962285 0.942966
vt 0.961222 0.942340
vt 0.960640 0.941951
vt 0.961264 0.942122
vt 0.960194 0.941907
vt 0.960546 0.942152
vt 0.961997 0.942428
vt 0.962329 0.942934
vt 0.957578 0.951654
vt 0.958246 0.951654
vt 0.955672 0.951654
vt 0.953765 0.947722
vt 0.953765 0.947264
vt 0.966616 0.950856
vt 0.953765 0.947017
vt 0.954433 0.947017
vt 0.955225 0.951654
vt 0.909093 0.904317
vt 0.909357 0.903006
vt 0.907572 0.903268
vt 0.907573 0.906549
vt 0.909092 0.905464
vt 0.907573 0.905464
vt 0.894105 0.937873
vt 0.894105 0.941003
vt 0.892223 0.941003
vt 0.525198 0.515113
vt 0.955907 0.942957
vt 0.966616 0.951392
vt 0.953765 0.951654
vt 0.498116 0.180108
vt 0.953765 0.956160
vt 0.957578 0.953459
vt 0.953766 0.942934
vt 0.960195 0.941685
vt 0.907572 0.904317
vt 0.907572 0.914545
vt 0.909093 0.914545
vt 0.909357 0.904317
vt 0.909357 0.903268
vt 0.909093 0.903006
vt 0.907572 0.903006
vt 0.909092 0.906549
vt 0.894432 0.933417
vt 0.894432 0.934742
vt 0.894105 0.934742
vt 0.894105 0.933417
vt 0.892223 0.934742
vt 0.892223 0.933417
vt 0.892223 0.937873
vt 0.894105 0.948459
vt 0.892223 0.948459
s 0
usemtl Material.001
f 49/1/1 2/2/1 40/3/1
f 1/4/2 50/5/2 51/6/2
f 13/7/3 35/8/3 14/9/3
f 25/10/4 37/11/4 21/12/4
f 6/13/2 17/14/2 10/15/2
f 1/4/2 18/16/2 6/13/2
f 7/17/1 8/18/1 9/19/1
f 14/20/1 4/21/1 7/17/1
f 1/4/2 41/22/2 42/23/2
f 2/24/5 43/25/5 40/26/5
f 5/27/2 19/28/2 24/29/2
f 8/30/6 29/31/6 9/32/6
f 14/20/1 15/33/1 13/34/1
f 16/35/2 17/14/2 18/16/2
f 24/36/7 20/37/7 23/38/7
f 19/39/8 21/12/8 20/37/8
f 26/40/9 45/41/9 44/42/9
f 26/40/10 28/43/10 27/44/10
f 22/45/4 25/10/4 21/12/4
f 10/15/2 19/28/2 11/46/2
f 17/14/2 22/47/2 10/15/2
f 16/35/2 28/48/2 17/14/2
f 12/49/11 30/50/11 8/30/11
f 27/51/2 1/4/2 42/23/2
f 35/52/1 38/53/1 39/54/1
f 43/55/1 36/56/1 46/57/1
f 29/58/1 31/59/1 37/60/1
f 32/61/1 31/59/1 30/62/1
f 34/63/1 37/60/1 38/53/1
f 36/56/1 39/54/1 47/64/1
f 9/32/12 34/65/12 13/66/12
f 20/37/7 33/67/7 23/38/7
f 26/40/9 47/68/9 39/69/9
f 14/9/5 36/70/5 2/24/5
f 26/40/10 38/71/10 25/72/10
f 21/12/8 31/73/8 20/37/8
f 40/74/13 47/75/13 42/76/13
f 50/77/14 48/78/14 51/79/14
f 40/3/1 48/83/1 49/1/1
f 49/1/1 4/21/1 2/2/1
f 51/6/2 41/22/2 1/4/2
f 1/4/2 3/84/2 50/5/2
f 13/7/3 34/85/3 35/8/3
f 25/10/4 38/86/4 37/11/4
f 11/46/2 5/27/2 6/13/2
f 6/13/2 18/16/2 17/14/2
f 10/15/2 11/46/2 6/13/2
f 6/13/2 3/84/2 1/4/2
f 1/4/2 16/35/2 18/16/2
f 9/19/1 13/34/1 15/33/1
f 7/17/1 12/87/1 8/18/1
f 9/19/1 15/33/1 7/17/1
f 7/17/1 15/33/1 14/20/1
f 14/20/1 2/2/1 4/21/1
f 2/24/5 36/70/5 43/25/5
f 5/27/2 11/46/2 19/28/2
f 8/30/6 30/50/6 29/31/6
f 24/36/7 19/39/7 20/37/7
f 19/39/8 22/45/8 21/12/8
f 26/40/9 27/44/9 45/41/9
f 26/40/10 25/72/10 28/43/10
f 22/45/4 28/88/4 25/10/4
f 10/15/2 22/47/2 19/28/2
f 17/14/2 28/48/2 22/47/2
f 16/35/2 27/51/2 28/48/2
f 12/49/11 32/89/11 30/50/11
f 42/23/2 45/90/2 27/51/2
f 27/51/2 16/35/2 1/4/2
f 35/52/1 34/63/1 38/53/1
f 29/58/1 30/62/1 31/59/1
f 32/61/1 33/91/1 31/59/1
f 34/63/1 29/58/1 37/60/1
f 47/64/1 46/57/1 36/56/1
f 36/56/1 35/52/1 39/54/1
f 9/32/12 29/31/12 34/65/12
f 20/37/7 31/73/7 33/67/7
f 26/40/9 44/42/9 47/68/9
f 14/9/5 35/8/5 36/70/5
f 26/40/10 39/69/10 38/71/10
f 21/12/8 37/11/8 31/73/8
f 41/92/13 51/93/13 48/94/13
f 40/74/13 43/95/13 46/96/13
f 41/92/13 48/94/13 40/74/13
f 44/97/13 45/98/13 42/76/13
f 42/76/13 41/92/13 40/74/13
f 40/74/13 46/96/13 47/75/13
f 47/75/13 44/97/13 42/76/13
f 50/77/14 49/99/14 48/78/14
usemtl 
f 7/80/5 4/81/5 3/82/5
f 33/100/5 32/101/5 12/102/5
f 23/103/5 33/100/5 12/102/5
f 5/104/5 24/105/5 23/103/5
f 6/106/5 5/104/5 23/103/5
f 6/106/5 23/103/5 12/102/5
f 49/107/5 50/108/5 3/82/5
f 3/82/5 6/106/5 12/102/5
f 3/82/5 12/102/5 7/80/5
f 4/81/5 49/107/5 3/82/5
