# Blender 4.1.1
# www.blender.org
mtllib untitled.mtl
o Cube.001
v -1.000000 -0.082168 -0.987981
v -0.987981 -0.082168 -1.000000
v -0.987981 0.082168 -1.000000
v -1.000000 0.082168 -0.987981
v 0.111190 0.082168 -1.111846
v 0.111190 -0.082168 -1.111846
v -1.106891 0.082168 -1.032256
v -1.032256 0.082168 -1.106891
v -1.032256 -0.082168 -1.106891
v -1.106891 -0.082168 -1.032256
v -1.000000 0.110759 -0.987981
v -0.987981 0.110759 -1.000000
v -0.000655 0.082168 -1.000000
v 0.111190 0.110759 -1.111846
v -1.106891 0.110759 -1.032256
v -0.000655 -0.082168 -1.000000
v -1.032256 0.110759 -1.106891
v -1.000000 0.082168 -0.142283
v 0.111190 -0.082168 -1.111846
v -0.000655 0.110759 -1.000000
v -1.000000 -0.082168 -0.142283
v 0.111190 0.082168 -1.111846
v 0.111190 0.110759 -1.111846
v -1.113515 0.082168 -0.255799
v -1.113515 -0.082168 -0.255799
v -1.113515 0.110759 -0.255799
v -1.000000 0.110759 -0.142283
v -0.929186 -0.082168 -0.071469
v -0.929186 0.082168 -0.071469
vn -0.0000 1.0000 -0.0000
vn -0.0000 -1.0000 -0.0000
vn -0.0000 -0.0000 1.0000
vn -0.7071 -0.0000 -0.7071
vn -0.0043 -0.0000 -1.0000
vn -1.0000 -0.0000 -0.0085
vn 1.0000 -0.0000 -0.0000
vn 0.7071 -0.0000 0.7071
vn -0.7071 -0.0000 0.7071
vt 0.764703 0.855848
vt 0.536047 0.859053
vt 0.517169 0.840174
vt 0.955650 0.946796
vt 0.954004 0.946780
vt 0.953996 0.944886
vt 0.953765 0.942966
vt 0.953780 0.944672
vt 0.967284 0.947040
vt 0.966616 0.948935
vt 0.966616 0.947040
vt 0.966436 0.942353
vt 0.966579 0.941685
vt 0.966579 0.942353
vt 0.954433 0.951654
vt 0.958272 0.947754
vt 0.958272 0.951654
vt 0.964945 0.946192
vt 0.964945 0.942353
vt 0.966579 0.946192
vt 0.954027 0.946803
vt 0.955433 0.947015
vt 0.953943 0.947009
vt 0.964945 0.941685
vt 0.966436 0.941685
vt 0.953765 0.947754
vt 0.954433 0.947754
vt 0.953799 0.946866
vt 0.962092 0.946780
vt 0.962315 0.944672
vt 0.962330 0.942966
vt 0.962068 0.946803
vt 0.960662 0.947015
vt 0.960446 0.946796
vt 0.962153 0.947009
vt 0.966616 0.955184
vt 0.967284 0.953561
vt 0.967284 0.955184
vt 0.966616 0.947017
vt 0.967284 0.947017
vt 0.908933 0.904658
vt 0.908933 0.903485
vt 0.907732 0.905391
vt 0.958272 0.949460
vt 0.954433 0.949460
vt 0.953765 0.949460
vt 0.908968 0.916075
vt 0.907697 0.916075
vt 0.908968 0.914852
vt 0.764703 0.592641
vt 0.761499 0.859053
vt 0.955786 0.946660
vt 0.967284 0.948935
vt 0.966436 0.946192
vt 0.953765 0.951654
vt 0.962296 0.946866
vt 0.962100 0.944886
vt 0.966616 0.953561
vt 0.909142 0.904658
vt 0.909142 0.903485
vt 0.907732 0.903485
vt 0.907732 0.904658
vt 0.908933 0.905391
vt 0.909189 0.914852
vt 0.909189 0.916075
vt 0.908968 0.926226
vt 0.907697 0.926226
vt 0.907697 0.914852
s 0
usemtl Material.001
f 3/1/1 18/2/1 29/3/1
f 21/4/2 2/5/2 16/6/2
f 6/7/2 19/8/2 2/5/2
f 3/9/3 20/10/3 12/11/3
f 7/12/4 17/13/4 8/14/4
f 8/15/5 6/16/5 9/17/5
f 7/12/6 25/18/6 24/19/6
f 9/20/4 7/12/4 8/14/4
f 1/21/2 25/22/2 10/23/2
f 7/12/6 26/24/6 15/25/6
f 8/15/5 14/26/5 5/27/5
f 1/21/2 9/28/2 2/5/2
f 12/29/1 23/30/1 14/31/1
f 11/32/1 26/33/1 27/34/1
f 12/29/1 15/35/1 11/32/1
f 11/36/7 18/37/7 4/38/7
f 3/9/8 11/39/8 4/40/8
f 18/41/9 24/42/9 28/43/9
f 19/44/3 5/27/3 22/45/3
f 5/27/3 23/46/3 22/45/3
f 13/47/8 16/48/8 22/49/8
f 29/3/1 13/50/1 3/1/1
f 3/1/1 4/51/1 18/2/1
f 16/6/2 28/52/2 21/4/2
f 21/4/2 1/21/2 2/5/2
f 2/5/2 9/28/2 6/7/2
f 19/8/2 16/6/2 2/5/2
f 3/9/3 13/53/3 20/10/3
f 7/12/4 15/25/4 17/13/4
f 8/15/5 5/27/5 6/16/5
f 7/12/6 10/54/6 25/18/6
f 9/20/4 10/54/4 7/12/4
f 1/21/2 21/4/2 25/22/2
f 7/12/6 24/19/6 26/24/6
f 8/15/5 17/55/5 14/26/5
f 1/21/2 10/23/2 9/28/2
f 14/31/1 17/56/1 12/29/1
f 12/29/1 20/57/1 23/30/1
f 11/32/1 15/35/1 26/33/1
f 12/29/1 17/56/1 15/35/1
f 11/36/7 27/58/7 18/37/7
f 3/9/8 12/11/8 11/39/8
f 18/41/9 27/59/9 26/60/9
f 24/42/9 25/61/9 21/62/9
f 18/41/9 26/60/9 24/42/9
f 28/43/9 29/63/9 18/41/9
f 24/42/9 21/62/9 28/43/9
f 19/44/3 6/16/3 5/27/3
f 5/27/3 14/26/3 23/46/3
f 23/64/8 20/65/8 13/47/8
f 13/47/8 29/66/8 28/67/8
f 16/48/8 19/68/8 22/49/8
f 13/47/8 28/67/8 16/48/8
f 22/49/8 23/64/8 13/47/8
